<svg aria-hidden="true" style="position: absolute; width: 0; height: 0; overflow: hidden;" version="1.1" xmlns="http://www.w3.org/2000/svg" xmlns:xlink="http://www.w3.org/1999/xlink">
<defs>
<symbol id="Logo" viewBox="0 0 206 32">
<path fill-rule="evenodd" clip-rule="evenodd" style="fill: var(--color1, #fff)" d="M171.165 6.58c1.871 0 3.362-1.491 3.362-3.334 0-1.813-1.491-3.246-3.304-3.246s-3.275 1.491-3.275 3.304c0 1.842 1.433 3.275 3.217 3.275zM110.017 25.822h-5.322v-22.4h5.41v6.141c0 0 2.398-2.047 5.527-2.047 5.293 0 8.422 4.474 8.422 9.358 0 5.001-3.188 9.387-8.247 9.387-2.368 0-4.123-0.673-5.79-2.31v1.872zM93.085 26.261c-5.527 0-9.329-3.363-9.329-9.387 0-5.439 3.89-9.358 9.182-9.358 5.176 0 8.831 3.421 8.831 9.826l0.002 0.156c0.002 0.091 0.004 0.173 0.006 0.252 0.006 0.22 0.012 0.411-0.007 0.674h-12.633c0.468 2.135 2.164 3.158 4.211 3.158 1.682 0 2.818-1.118 3.726-2.275l0.163-0.211c0 0 2.651 1.529 3.895 2.276l0.345 0.209c-1.579 2.807-4.621 4.679-8.393 4.679zM59.806 25.822l-6.843-17.955h5.732l3.568 9.943 3.275-9.943h4.357l3.451 10.001 3.538-10.001h5.644l-6.755 17.955h-4.708l-3.334-9.65-3.217 9.65h-4.708zM92.88 12.078c1.696 0 2.632 0.819 3.275 2.544h-6.814c0.673-1.667 1.696-2.544 3.538-2.544zM114.403 12.545c2.456 0 4.24 1.93 4.24 4.211 0 2.544-1.345 4.679-4.006 4.679-2.836 0-4.678-1.784-4.678-4.562 0-2.603 1.901-4.328 4.445-4.328zM135.81 26.436c-5.498 0-9.709-4.503-9.709-9.504 0-5.381 4.298-9.416 9.826-9.416 5.439 0 9.679 3.919 9.679 9.329 0 5.469-3.948 9.592-9.796 9.592zM135.897 12.633c2.544 0 4.299 1.813 4.299 4.123 0 2.807-1.638 4.533-4.328 4.533-2.486 0-4.328-1.872-4.328-4.27 0-2.456 1.725-4.387 4.357-4.387zM159.262 25.822h-4.854l-7.515-17.955h6.082l3.918 10.498 3.685-10.498h5.732l-7.048 17.955zM173.914 7.866h-5.439v17.955h5.439v-17.955zM176.838 16.932c0 5.001 4.211 9.504 9.709 9.504 5.849 0 9.797-4.123 9.797-9.592 0-5.41-4.241-9.329-9.68-9.329-5.526 0-9.826 4.036-9.826 9.416zM190.933 16.756c0-2.31-1.754-4.123-4.298-4.123-2.632 0-4.358 1.93-4.358 4.387 0 2.398 1.842 4.27 4.328 4.27 2.69 0 4.328-1.725 4.328-4.533z"></path>
<path fill="#fff" style="fill: var(--color1, #fff)" d="M201.666 19.345c1.842 0 3.362 1.521 3.362 3.363s-1.52 3.363-3.362 3.363c-1.842 0-3.363-1.521-3.363-3.363s1.521-3.363 3.363-3.363z"></path>
<path fill="#ffd723" style="fill: var(--color2, #ffd723)" d="M29.32 27.587c-1.040 1.734-3.553 1.734-4.593 0l-14.502-24.17h28.867c2.082 0 3.367 2.271 2.296 4.056l-12.069 20.114z"></path>
<path fill="#fff" style="fill: var(--color1, #fff)" d="M14.502 27.587c1.040 1.734 3.553 1.734 4.593 0l14.502-24.17h-28.867c-2.082 0-3.367 2.271-2.296 4.056l12.069 20.114z"></path>
<path fill="#f6f6f6" style="fill: var(--color3, #f6f6f6)" d="M10.225 3.417h23.372l-11.685 19.477-11.687-19.477z"></path>
</symbol>
<symbol id="Logo2" viewBox="0 0 183 32">
<path fill-rule="evenodd" clip-rule="evenodd" style="fill: var(--color1, #fff)" d="M152.146 5.849c1.663 0 2.989-1.326 2.989-2.963 0-1.612-1.326-2.885-2.937-2.885s-2.912 1.326-2.912 2.937c0 1.638 1.274 2.911 2.86 2.911zM93.061 22.953v-19.911h4.809v5.459c0 0 2.131-1.82 4.912-1.82 4.705 0 7.486 3.977 7.486 8.318 0 4.445-2.833 8.344-7.33 8.344-2.106 0-3.665-0.598-5.147-2.054v1.664h-4.731zM82.742 23.343c-4.913 0-8.292-2.989-8.292-8.344 0-4.835 3.457-8.318 8.162-8.318 4.601 0 7.85 3.041 7.85 8.734l0.001 0.138c0.001 0.081 0.003 0.154 0.005 0.224v0.001c0.006 0.195 0.010 0.365-0.006 0.599h-11.229c0.416 1.898 1.924 2.807 3.743 2.807 1.495 0 2.505-0.994 3.313-2.022l0.145-0.187c0 0 2.357 1.359 3.463 2.023l0.306 0.186c-1.404 2.495-4.107 4.159-7.46 4.159zM53.161 22.953l-6.083-15.96h5.095l3.171 8.838 2.911-8.838h3.873l3.067 8.89 3.145-8.89h5.017l-6.005 15.96h-4.185l-2.963-8.578-2.859 8.578h-4.185zM82.56 10.736c1.508 0 2.339 0.728 2.911 2.261h-6.057c0.598-1.482 1.508-2.261 3.145-2.261zM101.691 11.151c2.183 0 3.77 1.716 3.77 3.743 0 2.261-1.196 4.159-3.561 4.159-2.522 0-4.159-1.586-4.159-4.055 0-2.313 1.69-3.847 3.951-3.847zM120.72 23.499c-4.887 0-8.63-4.003-8.63-8.448 0-4.783 3.821-8.37 8.733-8.37 4.836 0 8.604 3.483 8.604 8.292 0 4.861-3.509 8.526-8.708 8.526zM120.797 11.229c2.262 0 3.821 1.612 3.821 3.665 0 2.495-1.456 4.029-3.846 4.029-2.21 0-3.847-1.664-3.847-3.795 0-2.184 1.533-3.899 3.873-3.899zM141.566 22.953h-4.315l-6.681-15.96h5.407l3.483 9.332 3.275-9.332h5.094l-6.265 15.96zM154.589 6.992h-4.835v15.96h4.835v-15.96zM157.19 15.051c0 4.445 3.743 8.448 8.63 8.448 5.199 0 8.708-3.665 8.708-8.526 0-4.809-3.769-8.292-8.604-8.292-4.912 0-8.733 3.587-8.733 8.37zM169.718 14.895c0-2.054-1.56-3.665-3.821-3.665-2.34 0-3.873 1.716-3.873 3.899 0 2.131 1.637 3.795 3.847 3.795 2.391 0 3.846-1.534 3.846-4.029z"></path>
<path fill="#edb91b" style="fill: var(--color4, #edb91b)" d="M179.258 17.196c1.637 0 2.989 1.352 2.989 2.989s-1.351 2.989-2.989 2.989c-1.638 0-2.99-1.352-2.99-2.989s1.351-2.989 2.99-2.989z"></path>
<path fill="#edb91b" style="fill: var(--color4, #edb91b)" d="M26.062 24.522c-0.925 1.541-3.158 1.541-4.082 0l-12.891-21.485h25.66c1.85 0 2.993 2.019 2.041 3.605l-10.728 17.88z"></path>
<path fill="#fff" style="fill: var(--color1, #fff)" d="M12.891 24.522c0.925 1.541 3.158 1.541 4.083 0l12.891-21.485h-25.66c-1.85 0-2.993 2.019-2.041 3.605l10.728 17.88z"></path>
<path fill="#eef0e7" style="fill: var(--color5, #eef0e7)" d="M9.089 3.037h20.775l-10.387 17.313-10.388-17.313z"></path>
</symbol>
<symbol id="triangle-right-icon" viewBox="0 0 20 20">
<path d="M15 10l-9 5v-10l9 5z"></path>
</symbol>
<symbol id="linkedin-icon" viewBox="0 0 24 24">
<path d="M8 19h-3v-10h3v10zM19 19h-3v-5.342c0-1.392-0.496-2.085-1.479-2.085-0.779 0-1.273 0.388-1.521 1.165 0 1.262 0 6.262 0 6.262h-3c0 0 0.040-9 0-10h2.368l0.183 2h0.062c0.615-1 1.598-1.678 2.946-1.678 1.025 0 1.854 0.285 2.487 1.001 0.637 0.717 0.954 1.679 0.954 3.030v5.647z"></path>
<path d="M8.050 6.5c0 0.828-0.694 1.5-1.55 1.5s-1.55-0.672-1.55-1.5c0-0.828 0.694-1.5 1.55-1.5s1.55 0.672 1.55 1.5z"></path>
</symbol>
<symbol id="twitter-icon" viewBox="0 0 24 24">
<path d="M18.89 7.012c0.808-0.496 1.343-1.173 1.605-2.034-0.786 0.417-1.569 0.703-2.351 0.861-0.703-0.756-1.593-1.14-2.66-1.14-1.043 0-1.924 0.366-2.643 1.078-0.715 0.717-1.076 1.588-1.076 2.605 0 0.309 0.039 0.585 0.117 0.819-3.076-0.105-5.622-1.381-7.628-3.837-0.34 0.601-0.51 1.213-0.51 1.846 0 1.301 0.549 2.332 1.645 3.089-0.625-0.053-1.176-0.211-1.645-0.47 0 0.929 0.273 1.705 0.82 2.388 0.549 0.676 1.254 1.107 2.115 1.291-0.312 0.080-0.641 0.118-0.979 0.118-0.312 0-0.533-0.026-0.664-0.083 0.23 0.757 0.664 1.371 1.291 1.841 0.625 0.472 1.344 0.721 2.152 0.743-1.332 1.045-2.855 1.562-4.578 1.562-0.422 0-0.721-0.006-0.902-0.038 1.697 1.102 3.586 1.649 5.676 1.649 2.139 0 4.029-0.542 5.674-1.626 1.645-1.078 2.859-2.408 3.639-3.974 0.784-1.564 1.172-3.192 1.172-4.892v-0.468c0.758-0.57 1.371-1.212 1.84-1.921-0.68 0.293-1.383 0.492-2.11 0.593z"></path>
</symbol>
<symbol id="icon-facebook-logo" viewBox="0 0 24 24">
<path d="M13 10h3v3h-3v7h-3v-7h-3v-3h3v-1.255c0-1.189 0.374-2.691 1.118-3.512 0.744-0.823 1.673-1.233 2.786-1.233h2.096v3h-2.1c-0.498 0-0.9 0.402-0.9 0.899v2.101z"></path>
</symbol>
<symbol id="google-plus-icon" viewBox="0 0 36 28">
<path d="M22.453 14.266c0 6.547-4.391 11.188-11 11.188-6.328 0-11.453-5.125-11.453-11.453s5.125-11.453 11.453-11.453c3.094 0 5.672 1.125 7.672 3l-3.109 2.984c-0.844-0.812-2.328-1.766-4.562-1.766-3.906 0-7.094 3.234-7.094 7.234s3.187 7.234 7.094 7.234c4.531 0 6.234-3.266 6.5-4.937h-6.5v-3.938h10.813c0.109 0.578 0.187 1.156 0.187 1.906zM36 12.359v3.281h-3.266v3.266h-3.281v-3.266h-3.266v-3.281h3.266v-3.266h3.281v3.266h3.266z"></path>
</symbol>
<symbol id="menu-icon" viewBox="0 0 32 32">
<path d="M6.4 11.733v-2.133h19.2v2.133h-19.2zM6.4 17.067h19.2v-2.133h-19.2v2.133zM6.4 22.4h19.2v-2.133h-19.2v2.133z"></path>
</symbol>
</defs>
</svg>
